<mxfile host="app.diagrams.net" modified="2023-02-22T12:09:05.370Z" agent="5.0 (Windows NT 10.0; Win64; x64) AppleWebKit/537.36 (KHTML, like Gecko) Chrome/110.0.0.0 Safari/537.36 Edg/110.0.1587.50" etag="_vOqFOSYeaClYSRPMe02" version="20.8.22" type="github">
  <diagram name="第 1 页" id="BLvaf4C1UADeeSXtMjX_">
    <mxGraphModel dx="1434" dy="796" grid="1" gridSize="10" guides="1" tooltips="1" connect="1" arrows="1" fold="1" page="1" pageScale="1" pageWidth="827" pageHeight="1169" math="0" shadow="0">
      <root>
        <mxCell id="0" />
        <mxCell id="1" parent="0" />
        <mxCell id="ZMFsc_2ALxdDT9w60mIX-1" value="" style="whiteSpace=wrap;html=1;align=center;" parent="1" vertex="1">
          <mxGeometry x="185" y="240" width="350" height="200" as="geometry" />
        </mxCell>
        <mxCell id="ZMFsc_2ALxdDT9w60mIX-2" value="人机交互界面" style="whiteSpace=wrap;html=1;align=center;" parent="1" vertex="1">
          <mxGeometry x="210" y="330" width="110" height="80" as="geometry" />
        </mxCell>
        <mxCell id="ZMFsc_2ALxdDT9w60mIX-3" value="分析功能模块" style="whiteSpace=wrap;html=1;align=center;" parent="1" vertex="1">
          <mxGeometry x="400" y="330" width="110" height="80" as="geometry" />
        </mxCell>
        <mxCell id="ZMFsc_2ALxdDT9w60mIX-4" value="March-X分析优化自动化软件" style="text;html=1;strokeColor=none;fillColor=none;align=center;verticalAlign=middle;whiteSpace=wrap;rounded=0;" parent="1" vertex="1">
          <mxGeometry x="280" y="260" width="160" height="30" as="geometry" />
        </mxCell>
        <mxCell id="ZMFsc_2ALxdDT9w60mIX-5" value="" style="shape=flexArrow;endArrow=classic;html=1;rounded=0;exitX=1;exitY=0.125;exitDx=0;exitDy=0;exitPerimeter=0;entryX=-0.009;entryY=0.138;entryDx=0;entryDy=0;entryPerimeter=0;" parent="1" source="ZMFsc_2ALxdDT9w60mIX-2" target="ZMFsc_2ALxdDT9w60mIX-3" edge="1">
          <mxGeometry width="50" height="50" relative="1" as="geometry">
            <mxPoint x="240" y="650" as="sourcePoint" />
            <mxPoint x="290" y="600" as="targetPoint" />
          </mxGeometry>
        </mxCell>
        <mxCell id="ZMFsc_2ALxdDT9w60mIX-6" value="执行命令" style="text;html=1;strokeColor=none;fillColor=none;align=center;verticalAlign=middle;whiteSpace=wrap;rounded=0;" parent="1" vertex="1">
          <mxGeometry x="320" y="310" width="60" height="30" as="geometry" />
        </mxCell>
        <mxCell id="ZMFsc_2ALxdDT9w60mIX-7" value="" style="shape=flexArrow;endArrow=classic;html=1;rounded=0;entryX=1;entryY=0.75;entryDx=0;entryDy=0;exitX=0;exitY=0.75;exitDx=0;exitDy=0;" parent="1" source="ZMFsc_2ALxdDT9w60mIX-3" target="ZMFsc_2ALxdDT9w60mIX-2" edge="1">
          <mxGeometry width="50" height="50" relative="1" as="geometry">
            <mxPoint x="280" y="440" as="sourcePoint" />
            <mxPoint x="180" y="530" as="targetPoint" />
          </mxGeometry>
        </mxCell>
        <mxCell id="ZMFsc_2ALxdDT9w60mIX-8" value="测试结果" style="text;html=1;strokeColor=none;fillColor=none;align=center;verticalAlign=middle;whiteSpace=wrap;rounded=0;" parent="1" vertex="1">
          <mxGeometry x="340" y="400" width="60" height="30" as="geometry" />
        </mxCell>
      </root>
    </mxGraphModel>
  </diagram>
</mxfile>
